<svg width="179" height="208" viewBox="0 0 179 208" fill="none" xmlns="http://www.w3.org/2000/svg">
<path d="M97.1816 2.88959C97.3607 3.19748 97.5465 3.49332 97.719 3.82535C98.045 3.85509 98.3736 3.80136 98.6678 3.67015C98.962 3.53895 99.2101 3.3355 99.384 3.08281C100.094 2.06256 101.188 1.87548 102.409 2.09281C102.323 1.48911 102.236 0.885379 102.144 0.251493C100.306 -0.581614 97.8118 0.746451 97.1816 2.88959Z" fill="#AA8727"/>
<path d="M124.676 44.5453C124.89 50.9119 124.16 57.2753 122.509 63.4256C121.711 66.2157 120.863 68.9931 119.997 71.7706C119.727 72.6732 119.488 73.6263 118.37 73.8788C118.187 73.6506 117.949 73.4729 117.679 73.3625C117.409 73.2521 117.115 73.2125 116.825 73.2476C116.787 72.7047 116.75 72.1683 116.718 71.6254C118.891 70.8553 119.808 68.81 118.565 66.6322C117.698 65.1172 118.169 63.8043 118.389 62.4093C118.471 61.9295 119.067 61.576 119.074 60.9637C119 59.809 119.143 58.6507 119.494 57.5488C118.27 57.5488 118.37 58.3505 118.044 58.8113C116.693 60.7744 115.764 63.1225 113.647 64.4039C112.071 65.3445 113.22 66.6448 112.963 67.7432L111.631 67.92C111.609 67.566 111.507 67.2219 111.333 66.9135C111.159 66.605 110.917 66.3404 110.626 66.1398C106.812 63.0341 103.006 59.9244 99.2081 56.8103C98.6366 54.3548 95.9046 53.9318 94.7427 52.0381C95.5227 49.7418 95.9195 47.3316 95.9171 44.9051C96.1495 38.9652 96.2814 33.0253 96.4259 27.0853C96.4573 25.7534 97.2172 24.5162 96.8781 23.1464C97.5564 21.0844 98.2326 19.0202 98.9067 16.954C100.136 16.8223 101.371 17.1454 102.38 17.8629C100.345 13.8167 100.986 9.2088 98.6115 4.72702C98.3477 8.29982 100.69 11.1529 98.8878 14.0755C97.9583 12.327 98.0462 10.326 97.6317 8.45757C97.1515 6.87162 97.2427 5.16626 97.8892 3.64116C98.1979 3.67225 98.509 3.61607 98.7876 3.47888C99.0661 3.34169 99.301 3.12896 99.4656 2.86475C100.138 1.79797 101.174 1.60234 102.336 1.82328C103.724 1.95584 104.22 3.01637 104.71 4.09579C105.2 5.1752 105.388 6.4503 106.594 7.10048C106.77 7.88952 106.594 8.77325 107.14 9.46761L108.56 11.8535C108.729 12.1565 108.893 12.4849 109.056 12.769C109.124 12.9379 109.246 13.0793 109.403 13.1707C109.56 13.2622 109.743 13.2984 109.923 13.2738C110.218 14.328 111.141 14.5363 111.995 14.8456L114.677 17.0549C116.216 18.4626 117.189 20.451 119.074 21.5115C119.651 22.5593 120.223 23.6072 120.801 24.6677C121.744 26.4653 122.461 28.3736 122.936 30.3488C123.508 35.0831 124.594 39.8047 124.676 44.5453ZM104 20.5142C102.245 21.2383 100.597 22.2003 99.1014 23.3736C98.5738 23.746 98.8941 24.4341 99.6101 24.5099C100.452 24.6045 101.312 24.5667 102.173 24.5857C102.801 25.3053 102.568 26.5109 103.498 27.1106C103.539 27.8107 103.539 28.5125 103.498 29.2125C103.391 30.1531 102.776 31.5229 104.597 30.1783C104.993 29.888 105.288 30.0648 105.639 30.2794C107.354 31.3336 108.409 30.8728 108.654 28.8402C108.824 27.4515 109.445 26.1511 109.653 24.876C109.91 23.3106 108.302 22.3511 106.782 21.8587C106.406 20.2175 104.666 20.2744 104 20.5142ZM99.2395 36.112C99.2764 36.1821 99.2957 36.26 99.2957 36.3392C99.2957 36.4184 99.2764 36.4965 99.2395 36.5665C96.1621 39.4765 99.5284 42.9673 98.3979 46.0856C97.996 47.1903 98.398 48.2318 99.8048 48.6105C99.9874 48.672 100.154 48.7727 100.294 48.9057C100.434 49.0387 100.544 49.2008 100.615 49.3806C101.4 52.4106 102.637 50.883 103.755 49.6899C104.635 48.7494 105.803 47.9162 105.639 46.3633C105.508 45.2902 106.267 45.8962 106.651 45.7321C107.794 45.2523 109.653 45.1008 108.384 42.9798C108.241 42.6102 108.208 42.2065 108.29 41.8184C108.397 40.6696 107.85 39.3818 107.034 39.2619C106.458 39.2041 105.879 39.3124 105.363 39.574C104.846 39.8356 104.415 40.2397 104.12 40.7389C103.744 41.4204 103.291 42.0558 102.769 42.6326C102.474 42.9618 102.065 43.1658 101.625 43.2033C101.185 43.2408 100.748 43.109 100.401 42.8347C99.5284 42.2034 99.7357 41.4207 100.188 40.537C101.444 38.1004 102.543 35.6386 99.6666 33.4546C99.1077 33.0316 99.3275 32.2804 99.3149 31.6681C99.3149 30.5319 99.3149 29.3956 99.3149 28.2657L98.6241 28.3794C99.34 30.898 97.4998 33.625 99.2395 36.112Z" fill="#F7BF0B"/>
<path d="M31.8112 35.4748C29.489 35.5693 27.7473 36.3689 27.3939 38.9816C27.3182 39.6112 27.1289 40.2407 26.2959 40.3099C26.0561 41.5691 24.9392 42.312 24.3523 43.3823C23.879 44.2322 23.7213 44.8176 24.9265 45.0128C27.5895 44.6162 28.921 46.9016 30.7763 48.0663C31.7229 48.6518 33.3636 48.7399 33.5466 49.4387C34.0325 51.2897 35.6164 51.6738 36.7964 52.5237C38.9988 54.1228 41.5419 55.3315 42.3875 58.2401C42.4773 58.3993 42.6086 58.5314 42.7674 58.6223C42.9263 58.7131 43.1068 58.7595 43.2899 58.7564C44.0282 58.045 44.1733 58.5865 44.2806 59.2223C45.5427 59.002 46.5145 58.8194 47.1455 60.4815C47.4547 61.3062 48.6474 62.0177 49.8085 62.2632C50.3196 62.3702 51.0706 62.6283 51.2031 63.0061C52.1875 65.644 54.9136 66.3743 56.7247 68.0868C59.1612 70.248 61.7743 72.2023 64.537 73.9292C67.7364 76.0824 70.1722 79.5449 74.5012 79.803C78.4795 72.2383 82.0397 64.4619 85.1658 56.5088C84.7114 53.2225 85.5192 50.0432 86.0303 46.845C82.181 43.1494 77.8267 40.033 73.6493 36.7718C68.5189 32.7866 63.1361 29.1413 58.0689 25.0554C54.7243 22.3608 51.0832 20.0187 47.8523 17.1605C47.1392 16.5309 46.5902 16.5876 45.8519 17.3305C42.1224 21.1961 39.0429 25.5905 35.7552 29.7772C35.1013 30.5552 34.3333 31.2303 33.4772 31.7793C33.2752 32.7174 32.7956 33.6051 32.9534 34.6061C32.9534 35.1538 32.9534 35.6763 33.5844 35.9785C34.083 36.2052 35.4776 35.6574 34.9033 36.8788C34.449 37.8735 33.5592 36.8787 32.884 36.6647C32.624 36.5644 32.3914 36.4044 32.205 36.1977C32.0186 35.991 31.8837 35.7433 31.8112 35.4748Z" fill="#30A8FF"/>
<path d="M86.016 47.0454C85.5042 50.2301 84.6954 53.3958 85.1504 56.662C85.7443 56.662 86.0413 56.9818 85.9591 57.546C85.7711 59.1637 85.4991 60.7707 85.144 62.3606C84.8534 63.4702 85.0113 65.0061 84.013 65.5828C81.5803 66.9933 80.5504 69.3443 79.4067 71.6011C77.7449 74.9237 76.1905 78.3027 74.5919 81.6316L74.2823 81.5502L74.4719 79.8074C70.1373 79.5503 67.6983 76.1023 64.4947 73.9583C61.7294 72.2467 59.1128 70.3091 56.6723 68.1657C54.8588 66.4606 52.1292 65.7333 51.1435 63.1066C51.0044 62.7304 50.2589 62.4797 49.747 62.3669C48.5844 62.1224 47.3902 61.4139 47.0806 60.5927C46.4487 58.9439 45.444 59.1257 44.2119 59.3389C44.613 60.1845 45.2055 60.9268 45.9432 61.5079C51.5921 65.401 56.9692 69.6577 62.3717 73.8893C64.9623 75.77 67.6414 77.5818 70.1057 79.6318C71.3694 80.6913 73.2208 81.3558 73.4546 83.3932C74.5919 84.8476 76.1589 85.7566 77.7007 86.6907C79.3625 86.6907 80.9674 87.048 82.6545 86.2706C85.005 85.1986 87.0775 84.1956 87.4503 81.2554C87.8042 78.4281 89.2196 75.8703 89.902 73.1056C90.6981 69.8395 93.1118 67.2317 94.3882 64.1285C94.6978 63.37 95.475 62.6803 94.8368 61.7462C93.8953 62.8183 92.1704 62.9311 91.5448 64.4169C91.3995 64.7679 91.0077 65.0751 90.6033 64.7617C90.199 64.4482 90.4011 64.0471 90.6033 63.696C91.2345 62.2721 91.6804 60.7743 91.9302 59.2386C92.3599 57.3579 93.3899 55.7718 95.0264 53.8409C95.2096 56.5617 94.1671 58.6932 94.8495 60.8122C96.4354 59.69 97.2506 57.6777 99.2725 57.0508C98.6975 54.6121 95.9489 54.192 94.78 52.3113C93.63 52.4179 92.9665 51.6343 92.2525 50.9322C90.9509 49.8852 89.2259 49.3523 88.4297 47.7161L86.016 47.0454Z" fill="#30A8FF"/>
<path d="M98.8958 17.229C100.139 17.0997 101.388 17.4169 102.409 18.1212C100.351 14.1496 100.999 9.62646 98.5972 5.22729C98.3303 8.73424 100.7 11.5349 98.8767 14.4036C98.8958 15.3702 98.8958 16.3058 98.8958 17.229Z" fill="#AA8727"/>
<path d="M32.0149 35.5063C32.0821 35.813 32.2096 36.0972 32.3871 36.3362C32.5647 36.5753 32.7875 36.7626 33.0378 36.8834C33.7011 37.1588 34.5753 38.2751 35.0216 37.1299C35.5734 35.7237 34.2157 36.3544 33.7259 36.0934C33.106 35.7455 33.106 35.144 33.106 34.5134C32.978 34.4899 32.8473 34.4974 32.7218 34.5353C32.5964 34.5732 32.4789 34.6408 32.3767 34.7338C32.2745 34.8269 32.1896 34.9434 32.1274 35.0763C32.0652 35.2091 32.0269 35.3555 32.0149 35.5063Z" fill="#0989D8"/>
<path d="M121.576 81.2861L120.347 83.2305C119.83 80.5791 118.526 80.6042 116.566 81.5638C114.966 82.2503 113.613 83.4114 112.691 84.8907C109.54 90.4903 105.514 95.4397 101.443 100.351C99.6532 102.516 100.346 105.402 99.2688 107.788C98.8782 108.665 101.298 109.24 101.021 110.818L100.517 110.692C100.353 110.528 100.195 110.351 100.019 110.193C99.2814 109.562 98.5757 108.64 97.8321 108.015L97.6683 107.876L93.9757 104.72C94.1413 104.584 94.2505 104.391 94.2819 104.178C94.3134 103.966 94.2649 103.749 94.1458 103.571C93.6291 102.693 93.0116 104.202 92.2239 103.735C92.7217 102.264 91.8458 101.279 90.8565 100.345C89.2308 98.8171 88.1595 96.898 87.0757 94.9788C88.1406 93.5016 89.5962 92.6304 91.1464 91.6645C93.7677 90.0232 96.5529 88.3187 97.5486 84.935C98.2165 82.6497 100.126 81.1473 101.695 79.487C102.448 78.7218 103.137 77.8962 103.755 77.0185C103.951 76.5829 104.14 76.1411 104.335 75.7055C107.272 73.5717 109.105 70.4405 111.456 67.7827L112.792 67.606C112.735 68.5845 113.365 69.0832 114.115 69.4998C114.291 70.1311 114.474 70.794 114.65 71.4443C113.623 72.1261 113.466 73.3382 112.521 74.2914C114.411 74.6955 115.539 73.8684 116.686 73.1108C116.978 73.0722 117.274 73.1101 117.547 73.2207C117.82 73.3314 118.059 73.511 118.242 73.7421C117.278 78.0097 117.518 78.5274 121.513 80.7369C121.563 80.8884 121.569 81.0904 121.576 81.2861Z" fill="#0063A0"/>
<path d="M104.392 75.9792C107.311 73.8685 109.133 70.7711 111.47 68.1422C111.448 67.792 111.346 67.4514 111.172 67.1463C110.999 66.8412 110.758 66.5796 110.467 66.3811C106.664 63.3088 102.868 60.2323 99.0809 57.1516C97.1017 57.7761 96.2937 59.7993 94.6966 60.8984C94.6966 61.2106 94.6966 61.5228 94.6966 61.8288C95.3229 62.7593 94.5588 63.4462 94.2519 64.2018C92.9993 67.3241 90.5942 69.8907 89.805 73.1441C89.1286 75.9104 87.7256 78.4582 87.3749 81.2621C87.0116 84.2033 84.951 85.2024 82.6211 86.2577C80.9488 87.0321 79.3579 86.6948 77.7107 86.6761C77.5103 87.338 78.0364 87.5879 78.3871 88C79.9154 89.7985 82.4144 90.5291 83.5981 92.7022L84.6253 93.0455C85.7778 91.9527 87.1306 91.0598 87.9135 89.5985C86.5669 89.6922 85.7339 91.1785 84.1556 91.0848C84.7381 89.1053 86.1097 87.9625 87.3373 86.6636C88.5649 85.3647 89.6797 84.6466 91.3896 85.7144C91.1516 86.3389 90.494 86.8197 90.6756 87.5878C91.5399 87.3505 92.9492 87.4754 93.0995 86.6698C93.444 84.8652 96.9576 85.3211 95.7801 82.6796C96.0727 82.5873 96.3722 82.5183 96.6758 82.4735C96.9898 82.4779 97.2991 82.3979 97.5714 82.2419C97.8436 82.0859 98.0686 81.8596 98.2228 81.5868C97.6341 80.7625 96.9263 80.9623 96.2373 81.4119C95.6423 81.8178 95.0786 82.2238 94.4586 81.4744C93.732 81.5619 92.899 81.2745 92.5107 82.2986C92.2164 83.0917 91.6339 82.5858 91.1516 82.4297L90.2372 82.9356C90.2998 83.2416 91.0076 83.4165 90.5503 83.7599C90.4543 83.8205 90.3461 83.8595 90.2334 83.8743C90.1207 83.889 90.0061 83.879 89.8977 83.8451C89.7892 83.8113 89.6894 83.7542 89.6053 83.678C89.5211 83.6018 89.4546 83.5083 89.4104 83.4039C89.1536 82.7358 89.6109 82.4798 90.2184 82.4111H90.6568C90.0305 81.5868 90.5691 81.0623 91.1391 80.5378C90.876 80.1756 90.375 79.7884 90.4 79.4387C90.6157 76.9983 91.2007 74.6044 92.1349 72.3385C94.1141 67.3428 98.4859 64.4142 102.275 60.9921C102.331 60.9422 102.544 61.0732 102.901 61.2043C100.716 64.4266 97.2144 66.5498 95.7864 70.2217C96.1243 70.2355 96.4603 70.1644 96.7635 70.0149C97.0667 69.8654 97.3273 69.6423 97.5213 69.3661C98.6424 68.1484 99.7385 68.1171 100.54 69.7782L102.908 68.3483C103.428 66.8246 105.031 66.3812 105.995 65.3008C106.068 65.2327 106.153 65.1799 106.246 65.1459C106.34 65.112 106.439 65.0976 106.538 65.1034C106.637 65.1093 106.734 65.1354 106.823 65.1801C106.912 65.2248 106.99 65.2872 107.054 65.3633C107.179 65.5307 107.243 65.7355 107.236 65.9441C105.983 66.6684 106.998 68.317 106.089 69.0664C103.96 70.7399 104.01 73.0878 103.835 75.3983L104.392 75.9792Z" fill="#0989D8"/>
<path d="M98.601 28.6568C99.346 31.1561 97.4643 33.8803 99.2433 36.3421C99.281 36.4114 99.3007 36.4885 99.3007 36.5669C99.3007 36.6453 99.281 36.7226 99.2433 36.7919C96.0964 39.6723 99.5387 43.1276 98.3827 46.2141C97.9717 47.3075 98.3827 48.3385 99.8213 48.7134C100.008 48.7742 100.179 48.8738 100.322 49.0055C100.465 49.1371 100.577 49.2976 100.65 49.4756C101.453 52.4747 102.718 50.9627 103.861 49.7818C104.76 48.8508 105.955 48.026 105.788 46.489C105.653 45.4268 106.43 46.0266 106.822 45.8642C107.99 45.3893 109.891 45.2393 108.594 43.1399C108.447 42.7741 108.414 42.3745 108.498 41.9904C108.607 40.8532 108.048 39.5786 107.213 39.4599C106.625 39.4027 106.032 39.5098 105.505 39.7688C104.977 40.0277 104.536 40.4277 104.233 40.9218C103.849 41.5964 103.386 42.2254 102.853 42.7963C102.55 43.1221 102.132 43.324 101.683 43.3611C101.233 43.3982 100.786 43.2678 100.431 42.9962C99.5387 42.3714 99.7506 41.5967 100.213 40.722C101.498 38.3102 102.621 35.8735 99.68 33.7116C99.1084 33.293 99.3332 32.5494 99.3204 31.9434C99.3204 30.8187 99.3204 29.6941 99.3204 28.5757L98.601 28.6568Z" fill="#AA8727"/>
<path d="M113.022 67.6014C112.967 68.5703 113.586 69.0641 114.322 69.4767C115.443 69.5892 116.297 70.0017 116.378 71.3019L116.749 71.4394C118.891 70.6768 119.795 68.6515 118.569 66.495C117.715 64.9948 118.179 63.6946 118.396 62.3132C118.476 61.8381 119.064 61.488 119.07 60.8817C118.998 59.7382 119.139 58.5912 119.485 57.5C118.278 57.5 118.377 58.2939 118.055 58.7502C116.724 60.6942 115.808 63.0195 113.722 64.2884C112.143 65.226 113.276 66.5137 113.022 67.6014Z" fill="#AA8727"/>
<path d="M106.857 23.5936C106.816 23.0451 106.74 22.503 106.682 21.9546C108.095 22.4584 109.602 23.4214 109.351 25.0029C109.158 26.2783 108.58 27.6048 108.422 29.0078C108.195 31.0612 107.213 31.5268 105.619 30.4618C105.292 30.245 105.035 30.0663 104.649 30.3597C102.955 31.718 103.528 30.3598 103.627 29.3841C103.665 28.6768 103.665 27.9677 103.627 27.2604C105.321 27.4263 107.038 25.5259 106.857 23.5936ZM107.926 24.5246L108.107 24.5884V24.4354L107.926 24.5246Z" fill="#AA8727"/>
<path d="M103.401 27.1718C105.257 27.3388 107.094 25.424 106.928 23.477C106.884 22.9243 106.801 22.3781 106.738 21.8255C104.348 21.1444 102.848 22.0633 102.13 24.3958C102.13 24.4729 102.079 24.5437 102.06 24.6208C102.721 25.3726 102.46 26.5999 103.401 27.1718Z" fill="#484233"/>
<path d="M102.136 24.7424C102.136 24.6665 102.178 24.5968 102.202 24.5209C102.886 22.1994 104.315 21.2949 106.59 21.9907C106.215 20.3903 104.551 20.4472 103.897 20.6876C102.206 21.4132 100.617 22.3773 99.1762 23.5531C98.6678 23.9263 98.9765 24.6158 99.6664 24.6917C100.496 24.7613 101.325 24.7044 102.136 24.7424Z" fill="#AA8727"/>
<path d="M116.604 71.5822L116.256 71.4395L114.824 71.5433C113.879 72.2434 113.734 73.488 112.864 74.4669C114.604 74.8817 115.642 74.0325 116.697 73.2546C116.668 72.6906 116.633 72.1397 116.604 71.5822Z" fill="#30A8FF"/>
<path d="M74.3681 79.738L74.1816 81.4648L74.4862 81.5456C76.0588 78.2222 77.5941 74.874 79.2226 71.6065C80.3477 69.3515 81.3609 67.0406 83.7539 65.6429C84.736 65.0714 84.5806 63.5495 84.8666 62.45C85.2158 60.8746 85.4834 59.2822 85.6684 57.6792C85.7492 57.1201 85.4571 56.8032 84.8728 56.8032C81.7929 64.6341 78.2861 72.2906 74.3681 79.738Z" fill="#0989D8"/>
<path d="M25.0459 44.9997C27.8922 47.8955 31.3808 50.0249 34.5672 52.4496C37.1427 54.4282 39.5546 56.6643 42.4701 58.197C41.6263 55.295 39.0886 54.0891 36.8909 52.4936C35.7133 51.6456 34.1327 51.2372 33.6478 49.4156C33.4652 48.7184 31.8279 48.6305 30.8834 48.0463C29.0509 46.9093 27.7033 44.604 25.0459 44.9997Z" fill="#0989D8"/>
<path d="M43.1667 58.8345L44.2122 59.2426C44.099 58.7132 43.9458 58.2113 43.1667 58.8345Z" fill="#9E9FA2"/>
<path d="M80.2674 94.9373C79.6735 95.1462 79.0654 95.3115 78.4478 95.4323C76.1291 96.1751 75.9206 97.0767 77.5949 98.886C79.4334 100.848 79.0733 100.835 76.8746 102.105C73.3176 104.168 68.7876 103.584 65.6791 106.593C59.5001 107.348 54.4268 112.097 47.8308 111.456C45.719 111.371 43.7049 110.539 42.1446 109.107C40.1671 107.202 38.9856 107.145 36.7364 108.593C36.073 109.018 35.6181 110.408 34.4051 109.431C33.3058 108.536 32.4465 107.488 32.8635 105.971C33.1794 104.828 33.3373 103.895 31.5051 103.685L35.0685 101.997C32.5981 101.749 30.6459 102.314 28.7126 102.771C28.6851 102.772 28.6578 102.766 28.6329 102.755C28.6079 102.743 28.586 102.726 28.5688 102.704C28.5516 102.683 28.5397 102.658 28.5339 102.631C28.5282 102.604 28.5288 102.576 28.5357 102.549C28.5925 101.552 29.0917 101.121 30.1025 100.994C30.9064 100.806 31.6864 100.527 32.4275 100.162C33.6532 100.314 34.3229 99.343 35.1696 98.7716C35.5902 98.9946 36.0596 99.1085 36.5351 99.103C37.0106 99.0974 37.4772 98.9727 37.8926 98.74C42.1193 96.499 46.8452 95.7942 51.3626 94.5118C57.5163 92.766 63.4047 90.5378 68.8571 87.1604C70.5882 86.0939 72.5278 85.3447 73.406 83.2878C74.5433 84.7607 76.1101 85.6812 77.6517 86.6271C77.4496 87.3001 77.9803 87.5539 78.3341 87.9729C79.8756 89.8013 82.3965 90.544 83.5906 92.7533C83.0662 94.3531 81.4678 94.3596 80.2674 94.9373ZM53.6434 95.5721C53.2137 95.7435 52.683 96.0291 52.9294 96.6005C53.1758 97.1718 53.7381 96.8164 54.1425 96.6831C55.3366 96.2895 56.4928 95.7688 57.7816 96.4354C57.9647 96.497 58.1588 96.5181 58.3508 96.4973C58.5427 96.4764 58.7279 96.4143 58.8936 96.3148C60.9217 95.0451 62.9182 93.6993 64.921 92.3852C60.7764 92.4931 57.2383 94.1183 53.6434 95.5531V95.5721ZM76.3565 88.5444C75.472 88.3857 74.9603 88.4618 75.1245 89.5093C75.2647 89.9551 75.3558 90.4149 75.3962 90.8805C75.3267 91.7693 74.7202 93.0771 76.1291 93.0898C77.538 93.1025 77.3042 91.5726 77.3927 90.633C77.3548 89.6998 77.6454 88.7538 76.3565 88.5253V88.5444Z" fill="#F7BF0B"/>
<path d="M94.5484 61.6545C94.5484 61.3377 94.5484 61.021 94.5484 60.7106C93.8827 58.5695 94.8998 56.4158 94.721 53.6665C93.1246 55.6176 92.1198 57.2455 91.7007 59.1206C91.457 60.6723 91.022 62.1858 90.4062 63.6246C90.2337 63.9794 90.0734 64.4164 90.4062 64.7015C90.7391 64.9865 91.1829 64.7015 91.3247 64.353C91.9473 62.8517 93.63 62.7377 94.5484 61.6545Z" fill="#0989D8"/>
<path d="M99.6634 107.778C100.734 105.357 100.045 102.485 101.823 100.31C105.866 95.3783 109.859 90.4083 112.995 84.7853C113.911 83.2997 115.255 82.1338 116.844 81.4444C118.766 80.4808 120.062 80.4555 120.6 83.1181L121.82 81.1655C125.263 83.118 127.985 85.9834 130.908 88.5889C131.303 88.9439 131.653 89.3496 132.023 89.73C131.86 89.9582 131.628 90.402 131.541 90.3639C130.121 89.9682 128.61 90.0917 127.272 90.7126C127.417 90.3592 127.598 90.0215 127.81 89.7046C128.014 89.5189 128.164 89.2799 128.242 89.0137C128.321 88.7475 128.325 88.4645 128.255 88.1959C127.979 87.6254 127.234 87.7901 126.777 87.974C125.951 88.3036 125.244 87.974 124.493 87.8409C123.742 87.7078 123.322 87.3591 123.867 86.573C124.731 85.3051 123.379 84.6712 122.878 84.0753C122.252 83.3146 121.689 84.5571 121.795 84.8868C122.565 87.2704 120.374 88.3607 119.611 90.0152C118.847 91.6698 117.351 92.8047 116.275 94.2437C115.586 95.1629 114.447 95.6954 115.023 97.5338C115.261 98.3262 113.095 100.38 111.656 101.039C109.346 102.104 109.309 104.805 107.418 106.041C106.98 106.326 107.337 106.903 107.681 107.271C107.847 107.498 108.075 107.669 108.337 107.764C108.599 107.859 108.882 107.873 109.152 107.804C109.916 107.512 109.077 107.094 109.096 106.7C109.183 104.742 110.973 104.292 112.012 103.195C112.09 103.133 112.183 103.093 112.281 103.08C112.379 103.067 112.479 103.081 112.57 103.121C112.661 103.16 112.74 103.224 112.798 103.305C112.856 103.386 112.892 103.482 112.901 103.582C112.97 104.082 113.258 104.627 112.601 105.065C111.944 105.502 110.848 105.344 110.485 106.555C110.931 106.701 111.408 106.719 111.863 106.607C112.318 106.495 112.734 106.257 113.064 105.921C113.283 105.592 113.573 105.318 113.912 105.118C114.251 104.919 114.63 104.8 115.021 104.77C115.412 104.74 115.804 104.8 116.168 104.946C116.533 105.091 116.86 105.318 117.126 105.61C119.26 107.607 120.7 106.212 122.371 105.097C122.071 104.273 121.232 104.38 120.65 104.101C120.068 103.823 119.567 103.531 120.024 102.897C120.8 101.876 120.262 101.73 119.398 101.667C118.96 101.635 118.378 101.807 118.184 101.223C117.99 100.64 118.491 100.355 118.847 100.089C119.756 99.3543 120.542 98.4767 121.176 97.4894C121.576 96.9505 121.802 95.9807 122.903 96.1519C124.155 96.342 123.61 97.4577 124.105 98.6051C124.412 97.1978 126.771 97.128 124.843 95.1185C124.293 94.5479 125.332 91.5875 127.309 90.7126C127.309 92.6588 126.684 94.5669 127.253 96.5575C127.572 97.6606 127.785 98.1107 128.636 97.0647C129.106 96.4941 129.563 96.7288 130.101 96.8048C130.727 96.8999 131.735 97.2422 131.86 96.2659C132.01 94.998 130.608 96.2659 130.257 95.3404C131.271 93.9901 132.041 92.2974 133.906 91.6382L138.05 94.1739C140.397 97.033 143.333 99.2455 146.087 101.68C150.9 105.87 156.038 109.674 160.801 113.934C162.516 115.468 162.178 116.932 161.114 118.479C160.562 119.138 159.946 119.739 159.274 120.273C158.592 120.273 158.191 119.715 157.672 119.386C157.211 119.079 156.688 118.881 156.142 118.807C155.596 118.732 155.04 118.784 154.516 118.957C153.991 119.129 153.512 119.42 153.114 119.806C152.716 120.192 152.408 120.663 152.214 121.186C152.058 121.611 151.588 122.663 152.358 122.454C154.336 121.959 154.33 124.083 155.488 124.527L154.054 126.429C153.444 127.342 152.664 128.126 151.757 128.736C151.476 128.426 151.094 128.254 150.962 128.768C150.831 129.281 151.363 129.275 151.701 129.402L150.387 130.34C149.851 130.391 149.311 130.378 148.778 130.302C147.971 130.08 147.62 128.318 146.575 129.218C144.885 130.676 142.788 131.697 141.605 133.719C141.544 133.796 141.499 133.885 141.473 133.981C141.446 134.077 141.439 134.177 141.452 134.275C141.465 134.373 141.498 134.468 141.547 134.553C141.597 134.638 141.664 134.713 141.743 134.771C141.875 134.837 142.021 134.871 142.168 134.871C142.316 134.871 142.461 134.837 142.594 134.771C144.146 133.751 144.897 134.771 145.605 135.938C143.777 137.935 142.538 140.502 140.022 141.833C139.521 140.882 137.637 140.806 138.407 138.981C138.62 138.467 137.825 138.569 137.386 138.727C136.172 139.164 136.235 140.217 136.204 141.231C133.932 139.576 131.616 137.966 130.088 135.526C131.879 135.57 132.498 134.125 133.256 132.901C133.399 132.673 133.005 132.166 132.761 132.324C131.559 133.104 130.289 133.871 130.088 135.494C129.275 135.589 128.899 134.771 128.211 134.575C121.117 128.362 114.024 122.145 106.93 115.924C105.616 114.764 104.865 112.907 102.88 112.571L101.428 110.808C101.71 109.236 99.2753 108.659 99.6634 107.778ZM147.739 116.546C144.985 117.179 143.871 118.688 143.239 120.73C143.114 120.722 142.989 120.742 142.872 120.787C142.755 120.832 142.649 120.902 142.561 120.992C142.472 121.082 142.404 121.19 142.36 121.308C142.316 121.427 142.298 121.554 142.306 121.681C141.951 121.693 141.604 121.785 141.289 121.951C140.974 122.117 140.699 122.351 140.485 122.638C138.848 125.053 136.998 127.313 134.958 129.389C134.651 129.706 134.182 130.112 134.751 130.549C134.924 130.65 135.128 130.68 135.321 130.632C135.514 130.585 135.682 130.465 135.79 130.296C137.975 127.722 140.172 125.148 142.312 122.549C142.45 122.378 142.312 121.966 142.312 121.674C142.438 121.681 142.563 121.662 142.681 121.617C142.798 121.572 142.905 121.502 142.994 121.412C143.084 121.322 143.153 121.215 143.198 121.096C143.244 120.977 143.264 120.85 143.257 120.723C145.185 120.089 146.149 118.447 147.739 116.546ZM132.517 136.546C132.517 136.749 132.686 137.136 132.755 137.136C133.053 137.15 133.346 137.055 133.581 136.87C134.77 135.475 135.916 134.042 137.236 132.432C135.734 132.552 132.536 135.526 132.517 136.546ZM137.731 130.949C138.795 131.012 139.095 130.441 139.439 129.434C139.02 129.427 138.613 129.579 138.298 129.859C137.982 130.139 137.78 130.527 137.731 130.949ZM116.519 91.9424C116.505 91.8214 116.478 91.7022 116.438 91.5874C116.438 91.543 116.312 91.5368 116.25 91.5177L116.15 91.8728L116.519 91.9424Z" fill="#30A8FF"/>
<path d="M150.5 130.315C149.957 130.366 149.41 130.353 148.87 130.277C148.052 130.055 147.697 128.294 146.637 129.194C144.925 130.651 142.8 131.671 141.601 133.692C141.539 133.769 141.493 133.858 141.467 133.954C141.44 134.049 141.433 134.149 141.446 134.247C141.459 134.346 141.492 134.44 141.542 134.525C141.593 134.611 141.66 134.685 141.74 134.743C141.875 134.809 142.022 134.843 142.172 134.843C142.321 134.843 142.469 134.809 142.603 134.743C144.176 133.723 144.937 134.743 145.654 135.909C146.967 135.447 147.088 134.148 147.62 133.134C146.986 132.627 145.851 132.254 146.517 131.234C147.183 130.214 148.039 131.069 148.794 131.354C149.01 131.436 149.206 131.563 149.428 131.664C149.716 131.563 149.97 131.383 150.159 131.144C150.349 130.905 150.467 130.618 150.5 130.315Z" fill="#0989D8"/>
<path d="M25.2086 110.794C26.0117 111.381 26.8127 111.969 27.6116 112.561C27.9486 111.416 27.5304 110.441 27.0873 109.416C25.8952 106.624 26.7065 103.756 28.8786 102.681C28.8512 102.681 28.8241 102.674 28.7995 102.662C28.775 102.65 28.7534 102.632 28.7366 102.611C28.7198 102.589 28.7081 102.563 28.7024 102.536C28.6967 102.509 28.6972 102.481 28.7038 102.455C27.7052 103.002 26.4569 102.914 25.5456 103.712C25.2648 105.448 24.9776 107.19 24.6968 108.932C24.6968 109.435 24.6968 109.938 24.6968 110.441L25.1462 110.8L25.2086 110.794Z" fill="#484233"/>
<path d="M140.045 141.635C139.543 140.669 137.651 140.591 138.424 138.737C138.638 138.215 137.84 138.318 137.4 138.479C136.181 138.923 136.244 139.993 136.212 141.023C136.804 140.895 137.421 140.974 137.964 141.247C138.508 141.52 138.946 141.972 139.21 142.53C139.43 142.508 139.636 142.405 139.789 142.241C139.942 142.077 140.033 141.862 140.045 141.635Z" fill="#0989D8"/>
<path d="M149.454 131.62C149.243 131.516 149.045 131.386 148.814 131.302C148.052 131.011 147.168 130.137 146.515 131.179C145.862 132.221 146.989 132.636 147.629 133.121C148.044 133.075 148.437 132.908 148.761 132.642C149.084 132.376 149.325 132.021 149.454 131.62Z" fill="#0063A0"/>
<path d="M139 142.468C138.755 141.994 138.347 141.61 137.842 141.377C137.337 141.145 136.763 141.078 136.212 141.187C136.873 142.129 137.258 143.601 139 142.468Z" fill="#0063A0"/>
<path d="M151.546 128.564C151.425 128.226 151.262 128.04 151.206 128.598C151.15 129.157 151.377 129.15 151.522 129.288L151.546 128.564Z" fill="#0063A0"/>
<path d="M35.1719 101.872L31.5983 103.548C33.4358 103.756 33.2774 104.682 32.9606 105.816C32.5424 107.322 33.4041 108.337 34.5066 109.251C35.7232 110.221 36.1794 108.841 36.8447 108.419C39.1067 106.982 40.2852 107.045 42.2684 108.929C43.8332 110.351 45.853 111.177 47.9709 111.261C54.5858 111.891 59.6737 107.184 65.8705 106.434C68.9879 103.447 73.5309 104.027 77.0981 101.979C79.3031 100.718 79.6643 100.719 77.8204 98.784C76.135 96.9881 76.3505 96.0932 78.6758 95.3559C79.2952 95.236 79.9051 95.0719 80.5006 94.8646C81.7045 94.2911 83.3075 94.2847 83.8461 92.6968L84.8852 93.0434C85.3414 94.2406 86.52 94.4991 87.4894 95.0158C88.5665 96.9062 89.6437 98.847 91.2911 100.372C92.2859 101.305 93.1919 102.262 92.666 103.756C93.458 104.216 94.079 102.716 94.5985 103.592C95.1181 104.468 94.1107 105.004 93.5214 105.419C91.8423 106.598 90.1062 107.707 88.3638 108.797C78.8596 114.726 68.9815 119.509 57.4688 120.322C49.745 120.896 42.3001 120.732 35.2163 117.297C33.7526 116.592 35.2923 117.165 32.7579 116.535C31.2013 115.705 29.7176 114.745 28.3226 113.668C27.9297 113.391 27.9614 112.805 27.5305 112.552C27.8727 111.406 27.4482 110.429 26.9983 109.402C25.7881 106.604 26.6118 103.731 28.8168 102.653C30.7556 102.187 32.6945 101.626 35.1719 101.872ZM85.6392 107.411C81.0012 110.171 76.2934 112.823 71.1422 114.342C63.6845 116.541 56.2142 118.986 48.218 118.236C46.0072 118.113 43.8144 117.769 41.6728 117.209C40.7857 116.938 39.8987 116.579 38.5934 117.291C41.2119 118.545 44.0707 119.224 46.9761 119.282C60.3264 119.705 72.6502 116.132 84.1819 109.578C86.7164 108.129 89.4853 106.907 91.4748 104.6L91.6839 104.392C91.6332 104.392 91.5699 104.392 91.5445 104.424C91.507 104.475 91.4791 104.533 91.4622 104.594C89.0354 104.493 87.4514 106.327 85.6392 107.411Z" fill="#AA8727"/>
<path d="M84.636 93.1439C85.0955 94.3532 86.2824 94.6142 87.2588 95.1361C88.3373 93.6468 89.8115 92.7685 91.3814 91.7947C94.0362 90.1399 96.8569 88.4214 97.8652 85.01C98.5416 82.706 100.475 81.1913 102.064 79.5174C102.827 78.746 103.525 77.9136 104.151 77.0288C103.047 76.876 102.466 78.0345 101.452 78.1045C101.356 78.6264 101.113 79.0019 100.526 79.0273C100.049 79.9951 99.3492 80.8367 98.4842 81.484C98.3258 81.7603 98.096 81.9893 97.8188 82.1471C97.5416 82.305 97.2271 82.3859 96.9079 82.3815C96.5986 82.4272 96.2935 82.4973 95.9954 82.5914C97.1951 85.2836 93.615 84.8191 93.264 86.6584C93.1108 87.4795 91.675 87.3522 90.7943 87.594C91.0623 89.1215 89.7094 89.0515 88.8798 89.5034L87.98 89.6243C87.2014 91.12 85.8102 92.0492 84.636 93.1439Z" fill="#0989D8"/>
<path d="M100.918 78.0606C101.916 77.9885 102.488 76.8949 103.574 77.0391C103.769 76.6245 103.957 76.204 104.152 75.7895C103.988 75.6152 103.819 75.4469 103.649 75.2727C102.831 75.6443 101.993 75.9733 101.138 76.2581C100.158 76.5766 99.1972 77.2675 100.918 78.0606Z" fill="#0063A0"/>
<path d="M114.793 71.4392L116.348 71.3486C116.266 70.1719 115.397 69.7986 114.257 69.6968C114.434 70.2795 114.616 70.8565 114.793 71.4392Z" fill="#DBBD4C"/>
<path d="M91.2573 82.2862C91.7384 82.4432 92.3194 82.9518 92.6131 82.1544C93.0004 81.1248 93.8314 81.4135 94.5561 81.3256C95.306 79.7187 96.2962 78.2366 97.4926 76.9308C98.2485 76.0268 99.4231 75.2796 99.2482 73.7917C98.3173 74.1684 97.8487 75.5811 96.6866 75.1353C97.63 73.0195 100.329 72.2159 100.666 69.5915C99.8667 67.9466 98.7921 67.953 97.655 69.1772C97.4614 69.4549 97.2015 69.6791 96.8991 69.8294C96.5967 69.9797 96.2615 70.0512 95.9244 70.0373C95.2996 70.6086 94.6124 71.1297 94.0501 71.7512C92.6568 73.2706 92.838 73.8106 94.9872 74.3443C93.8439 75.6376 92.5506 76.7739 92.2195 78.513C92.7818 78.6511 93.469 77.7847 93.8501 78.4753C94.15 79.0026 93.594 79.6117 93.2254 80.0763C92.5631 80.8297 91.9008 81.5517 91.2573 82.2862Z" fill="#30A8FF"/>
<path d="M100.716 69.7104C100.385 72.3368 97.7387 73.1411 96.8135 75.2585C97.9531 75.7046 98.4126 74.2908 99.3255 73.9138L99.8034 73.5808L99.9076 73.7505L99.3439 73.9327C99.5154 75.403 98.3636 76.1507 97.6223 77.0743C96.4491 78.3811 95.478 79.8643 94.7427 81.4726C95.3554 82.2266 95.9006 81.8181 96.4827 81.4097C97.1566 80.9384 97.849 80.7814 98.4249 81.5856C99.2564 80.9503 99.9284 80.1212 100.385 79.1667C98.7741 77.8661 98.9763 76.3141 100.882 75.3968C101.648 75.0135 103.038 74.8501 102.536 73.7003C102.189 73.0597 102.065 72.3164 102.187 71.594C102.308 70.8716 102.667 70.2136 103.204 69.7293C103.657 69.2266 104.368 68.6109 103.032 68.303L100.716 69.7104Z" fill="#7ACFF9"/>
<path d="M91.9481 78.9215C92.2902 77.1657 93.626 76.0185 94.807 74.7128C92.587 74.174 92.3999 73.6288 93.839 72.0948C94.4327 71.461 95.1297 70.9412 95.775 70.3644C97.2464 66.6373 100.854 64.4822 103.106 61.2115C102.712 61.0783 102.493 60.9452 102.461 60.9959C98.5887 64.4695 94.0713 67.4551 92.0127 72.5133C91.0443 74.8166 90.4373 77.2508 90.2122 79.7329C90.2122 80.0879 90.7026 80.4809 90.9737 80.8485C91.8836 80.4872 90.3864 78.9532 91.9481 78.9215Z" fill="#7ACFF9"/>
<path d="M103.027 68.1646C104.371 68.4746 103.644 69.0948 103.2 69.6011C102.66 70.0888 102.298 70.7516 102.176 71.4791C102.054 72.2067 102.178 72.9553 102.528 73.6005C103.033 74.7586 101.634 74.9231 100.863 75.3091C98.9454 76.252 98.7419 77.8404 100.363 79.106C100.931 79.106 101.165 78.7073 101.258 78.1884C99.5681 77.3594 100.511 76.6317 101.473 76.29C102.313 75.99 103.136 75.6435 103.94 75.2521C104.112 72.9107 104.063 70.5313 106.159 68.8354C107.053 68.1076 106.036 66.437 107.288 65.6713C107.295 65.46 107.232 65.2524 107.109 65.0828C107.046 65.0056 106.969 64.9424 106.882 64.8971C106.794 64.8518 106.699 64.8253 106.601 64.8194C106.503 64.8135 106.406 64.8281 106.314 64.8625C106.222 64.8969 106.138 64.9504 106.067 65.0195C105.117 66.1712 103.539 66.6205 103.027 68.1646Z" fill="#30A8FF"/>
<path d="M87.878 89.5307L88.7591 89.4124C88.6927 88.1635 89.278 87.5538 90.5694 87.6367C90.3944 86.8968 91.028 86.4529 91.2573 85.861C89.6099 84.8488 88.5056 85.565 87.3531 86.7607C86.2005 87.9563 84.8488 89.075 84.2876 90.9514C85.7781 91.0283 86.5807 89.6195 87.878 89.5307Z" fill="#7ACFF9"/>
<path d="M92.1242 78.703C90.4252 78.7325 92.054 80.1601 91.0641 80.4727C90.4252 80.9624 89.8285 81.4579 90.5235 82.2425H91.0782C91.7802 81.5523 92.5454 80.8739 93.2405 80.1601C93.6687 79.7235 94.2936 79.1513 93.9425 78.6557C93.5213 78.0186 92.7561 78.8328 92.1242 78.703Z" fill="#0063A0"/>
<path d="M90.1899 82.2427C89.7111 82.3241 89.3759 82.6277 89.5723 83.4197C89.6061 83.5435 89.6569 83.6543 89.7212 83.7447C89.7855 83.835 89.8618 83.9026 89.9447 83.9427C90.0277 83.9829 90.1153 83.9947 90.2014 83.9773C90.2876 83.9598 90.3703 83.9136 90.4437 83.8417C90.7932 83.4346 90.2522 83.2273 90.2043 82.8645L90.1899 82.2427Z" fill="#30A8FF"/>
<path d="M90.2122 82.2427V82.9396L90.9091 82.2676H90.532L90.2122 82.2427Z" fill="#D3D2CB"/>
<path d="M65.1213 92.3486C60.9276 92.476 57.3476 94.1059 53.7101 95.5321C53.2754 95.704 52.7384 95.9904 52.9877 96.5634C53.2371 97.1364 53.806 96.78 54.2151 96.6463C55.4234 96.2515 56.5933 95.7293 57.8974 96.3979C58.0826 96.4596 58.2791 96.4809 58.4733 96.46C58.6675 96.4392 58.8548 96.3767 59.0226 96.2769C61.0746 95.0036 63.0948 93.6666 65.1213 92.3486Z" fill="#AA8727"/>
<path d="M77.3184 90.6306C77.2616 89.732 77.5231 88.8022 76.3635 88.5776C75.5676 88.4216 75.1072 88.4965 75.255 89.5261C75.3811 89.9642 75.463 90.4161 75.4994 90.8739C75.4369 91.7475 74.8912 93.0329 76.1588 93.0454C77.4265 93.0578 77.2161 91.5541 77.3184 90.6306Z" fill="#AA8727"/>
<path d="M159.212 120.287C158.533 120.287 158.133 119.746 157.616 119.427C157.157 119.129 156.636 118.938 156.092 118.866C155.547 118.794 154.993 118.843 154.471 119.011C153.949 119.178 153.472 119.46 153.075 119.834C152.678 120.208 152.371 120.665 152.178 121.171C152.022 121.583 151.555 122.603 152.322 122.4C154.292 121.921 154.286 123.979 155.44 124.409C157.061 123.353 158.04 121.731 159.212 120.287Z" fill="#0989D8"/>
<path d="M126.825 91.1225C126.97 90.7737 127.149 90.4404 127.359 90.1278C127.561 89.9445 127.71 89.7085 127.787 89.4458C127.865 89.1831 127.869 88.904 127.8 88.639C127.527 88.076 126.788 88.2386 126.335 88.42C125.516 88.7453 124.815 88.42 124.07 88.2886C123.326 88.1573 122.91 87.8132 123.45 87.0375C124.306 85.7863 122.966 85.1608 122.469 84.5728C121.849 83.8221 121.29 85.0482 121.396 85.3735C122.159 87.7257 119.987 88.8015 119.23 90.4343C118.473 92.067 116.99 93.1869 115.922 94.6069C115.24 95.514 114.11 96.0394 114.681 97.8536C114.917 98.6355 112.77 100.662 111.342 101.313C109.053 102.364 109.015 105.029 107.141 106.249C106.707 106.53 107.061 107.099 107.402 107.462C107.566 107.686 107.792 107.855 108.052 107.949C108.311 108.042 108.593 108.056 108.86 107.988C109.617 107.7 108.786 107.287 108.804 106.899C108.891 104.966 110.666 104.522 111.696 103.44C111.773 103.379 111.865 103.34 111.963 103.327C112.06 103.314 112.159 103.328 112.249 103.367C112.339 103.406 112.417 103.469 112.475 103.549C112.533 103.629 112.568 103.723 112.577 103.822C112.646 104.316 112.931 104.854 112.28 105.285C111.628 105.717 110.542 105.561 110.182 106.755C110.624 106.899 111.097 106.917 111.548 106.807C111.999 106.696 112.412 106.462 112.739 106.13C112.956 105.805 113.244 105.535 113.58 105.338C113.916 105.141 114.291 105.024 114.679 104.994C115.066 104.965 115.455 105.024 115.817 105.168C116.178 105.311 116.503 105.535 116.766 105.823C118.882 107.794 120.31 106.418 121.966 105.317C121.669 104.503 120.837 104.61 120.26 104.334C119.683 104.059 119.186 103.771 119.639 103.146C120.409 102.139 119.875 101.995 119.019 101.932C118.584 101.901 118.007 102.07 117.815 101.494C117.623 100.919 118.119 100.637 118.473 100.375C119.374 99.6501 120.153 98.784 120.781 97.8098C121.178 97.278 121.402 96.321 122.494 96.4899C123.735 96.6776 123.195 97.7785 123.685 98.9108C123.99 97.522 126.329 97.4532 124.418 95.4701C123.872 94.9071 124.902 91.9857 126.863 91.1225H126.825Z" fill="#0989D8"/>
<path d="M133.773 92.1036C131.874 92.7168 131.109 94.3786 130.084 95.6847C130.457 96.5739 131.855 95.3781 131.704 96.58C131.577 97.5243 130.584 97.1932 129.925 97.1013C129.381 97.0277 128.919 96.8007 128.445 97.3526C127.584 98.3644 127.369 97.929 127.046 96.862C126.464 94.9366 127.11 93.0908 127.103 91.2083C128.456 90.6076 129.984 90.4882 131.419 90.871C131.507 90.871 131.742 90.4663 131.906 90.2578L132.349 90.2885C132.824 90.8894 133.298 91.4965 133.773 92.1036ZM129.16 93.2749C129.103 93.2749 129.046 93.189 128.989 93.1951C128.932 93.2012 128.894 93.2686 128.843 93.3054L129.014 93.3975L129.16 93.2749Z" fill="#0989D8"/>
<path d="M142.07 121.627C141.726 121.64 141.388 121.733 141.082 121.9C140.776 122.068 140.509 122.304 140.301 122.593C138.71 125.03 136.913 127.31 134.93 129.405C134.632 129.725 134.176 130.134 134.73 130.576C134.897 130.677 135.095 130.707 135.283 130.66C135.471 130.612 135.634 130.49 135.739 130.32C137.862 127.723 139.996 125.126 142.076 122.504C142.21 122.331 142.076 121.915 142.076 121.621L142.07 121.627Z" fill="#0989D8"/>
<path d="M137.258 132.424C135.816 132.549 132.745 135.632 132.727 136.69C132.727 136.901 132.89 137.302 132.956 137.302C133.242 137.316 133.523 137.218 133.749 137.026C134.89 135.58 135.99 134.094 137.258 132.424Z" fill="#0989D8"/>
<path d="M143.182 120.57C145.142 119.989 146.125 118.456 147.713 116.742C144.94 117.323 143.819 118.706 143.182 120.576V120.57Z" fill="#0989D8"/>
<path d="M129.94 135.56C131.696 135.603 132.303 134.2 133.046 133.013C133.187 132.792 132.801 132.3 132.561 132.454C131.383 133.21 130.136 133.954 129.94 135.529V135.56Z" fill="#0989D8"/>
<path d="M139.349 129.288C138.921 129.281 138.506 129.455 138.185 129.776C137.863 130.096 137.657 130.541 137.606 131.025C138.691 131.098 138.998 130.444 139.349 129.288Z" fill="#0989D8"/>
<path d="M142.136 121.62C142.275 121.628 142.414 121.606 142.544 121.557C142.673 121.507 142.791 121.431 142.89 121.333C142.988 121.234 143.065 121.116 143.115 120.986C143.165 120.856 143.188 120.717 143.181 120.578C143.043 120.569 142.904 120.591 142.775 120.64C142.646 120.69 142.529 120.767 142.431 120.865C142.334 120.964 142.259 121.082 142.21 121.212C142.162 121.342 142.141 121.481 142.15 121.62H142.136Z" fill="#0063A0"/>
<path d="M116 91.9429L116.348 92.0001C116.335 91.9007 116.309 91.803 116.27 91.7088C116.27 91.6723 116.15 91.6672 116.09 91.6516L116 91.9429Z" fill="#30A8FF"/>
<path d="M24.6968 110.47C24.6968 110.74 24.7307 110.915 25.0453 110.76L24.6968 110.47Z" fill="#B7BABD"/>
<path d="M91.2453 104.549C88.8305 104.455 87.2543 106.277 85.4511 107.354C80.8358 110.096 76.1512 112.731 71.0253 114.24C63.6044 116.425 56.1708 118.854 48.214 118.109C46.014 117.986 43.832 117.644 41.7009 117.089C40.8182 116.819 39.9355 116.463 38.6367 117.17C41.2423 118.415 44.0871 119.09 46.9782 119.148C60.2627 119.568 72.5259 116.018 84.0009 109.507C86.5229 108.067 89.2782 106.853 91.2579 104.561L91.2453 104.549Z" fill="#484233"/>
<path d="M90.53 87.4771C89.3176 87.3868 88.7654 88.1021 88.8223 89.5604C89.5623 89.0673 90.769 89.1437 90.53 87.4771Z" fill="#0063A0"/>
<path d="M99.284 73.8788L99.6214 73.6983L99.5591 73.5303L99.2729 73.8601L99.284 73.8788Z" fill="#D3D2CB"/>
<path d="M129.082 93.3939L129.243 93.1831C129.18 93.1831 129.117 93.0354 129.054 93.0459C128.992 93.0565 128.95 93.1724 128.894 93.2356L129.082 93.3939Z" fill="#0989D8"/>
<path d="M5.39026 206.076C3.76356 205.269 2.39122 204.03 1.4244 202.494C0.464849 200.936 -0.0289131 199.137 0.00130873 197.307V197.273C0.00130873 194.143 1.17084 191.7 3.50989 189.944C5.84895 188.188 9.16237 187.173 13.4502 186.9L26.8092 186.046V192.351L15.1809 193.167C13.6681 193.246 12.5285 193.588 11.7621 194.191C11.396 194.473 11.1024 194.838 10.9055 195.256C10.7085 195.674 10.614 196.133 10.6296 196.595V196.624C10.6086 197.095 10.7088 197.563 10.9205 197.984C11.1323 198.405 11.4485 198.764 11.839 199.028C12.7932 199.633 13.9106 199.931 15.0399 199.882C16.1009 199.903 17.1534 199.689 18.1211 199.254C18.9691 198.87 19.6994 198.268 20.2365 197.508C20.7501 196.779 21.0221 195.907 21.0143 195.015V184.757C21.0407 184.224 20.9503 183.691 20.7496 183.196C20.5488 182.702 20.2425 182.257 19.8519 181.892C19.0741 181.192 17.9416 180.838 16.4331 180.838C14.9245 180.838 13.8091 181.133 12.9715 181.726C12.1981 182.225 11.6482 183.004 11.4373 183.899L11.3775 184.206H1.62528L1.65517 183.809C1.79373 181.734 2.53643 179.744 3.79194 178.085C5.15351 176.356 6.95814 175.029 9.01422 174.243C11.5696 173.265 14.2917 172.797 17.0271 172.864C19.7047 172.807 22.3666 173.286 24.8562 174.272C26.9254 175.081 28.729 176.448 30.0657 178.221C31.3087 179.936 31.9596 182.008 31.9204 184.125V206.9H21.0485V202.204H20.8348C20.2202 203.264 19.4214 204.207 18.4758 204.987C17.522 205.772 16.431 206.375 15.2579 206.763C13.9731 207.186 12.6274 207.393 11.2749 207.378C9.23738 207.42 7.21949 206.973 5.39026 206.076Z" fill="#F7BF0B"/>
<path d="M37.1243 173.55H47.9306V179.473H48.1429C48.6099 177.352 49.4776 175.718 50.7457 174.571C52.0915 173.404 53.8274 172.793 55.6032 172.863C56.0977 172.861 56.5917 172.897 57.0809 172.97C57.5311 173.036 57.9745 173.143 58.4056 173.29V182.598C57.9037 182.378 57.3757 182.223 56.8346 182.137C56.2157 182.035 55.5893 181.985 54.9621 181.988C53.631 181.945 52.3095 182.228 51.1109 182.812C50.0817 183.348 49.25 184.201 48.7373 185.246C48.163 186.486 47.8867 187.845 47.9306 189.213V206.908H37.1243V173.55Z" fill="#F7BF0B"/>
<path d="M67.4093 205.43C65.5131 203.826 64.565 201.14 64.565 197.373V181.687H60.0608V173.706H64.565V166H75.3988V173.706H81.3422V181.687H75.3988V195.913C75.3988 197.34 75.7229 198.358 76.371 198.966C77.0191 199.573 77.9927 199.876 79.2917 199.873C79.7375 199.873 80.1153 199.873 80.421 199.826C80.7266 199.779 81.028 199.762 81.3337 199.719V207.455C80.7436 207.558 80.0346 207.648 79.211 207.729C78.3875 207.811 77.3941 207.853 76.2394 207.853C72.2545 207.845 69.3112 207.037 67.4093 205.43Z" fill="#F7BF0B"/>
<path d="M92.3511 205.749C89.8321 204.374 87.7836 202.276 86.4699 199.725C85.1008 197.115 84.4163 194 84.4163 190.381V190.346C84.4163 186.75 85.1008 183.645 86.4699 181.032C87.7688 178.491 89.7872 176.389 92.2736 174.987C94.7707 173.567 97.7184 172.857 101.117 172.857C104.515 172.857 107.459 173.551 109.947 174.94C112.4 176.29 114.405 178.327 115.716 180.799C117.077 183.321 117.757 186.278 117.757 189.671V192.842H89.7721V186.388H112.616L107.523 192.463V188.238C107.564 186.815 107.301 185.4 106.753 184.086C106.308 183.031 105.558 182.132 104.6 181.505C103.616 180.925 102.494 180.619 101.351 180.619C100.209 180.619 99.0872 180.925 98.103 181.505C97.1329 182.138 96.3743 183.046 95.9245 184.112C95.3797 185.415 95.1171 186.818 95.1539 188.23V192.485C95.1169 193.884 95.3858 195.274 95.9418 196.559C96.4161 197.632 97.2001 198.54 98.1935 199.166C99.2523 199.794 100.467 200.108 101.698 200.074C102.731 200.104 103.758 199.915 104.712 199.519C105.451 199.207 106.118 198.746 106.671 198.164C107.091 197.727 107.421 197.213 107.644 196.649L107.674 196.525H117.55L117.46 196.899C117.172 198.18 116.693 199.412 116.039 200.551C115.277 201.895 114.291 203.1 113.124 204.114C111.734 205.31 110.126 206.227 108.389 206.816C106.169 207.552 103.838 207.901 101.5 207.848C97.9581 207.842 94.9085 207.143 92.3511 205.749Z" fill="#F7BF0B"/>
<path d="M122.013 173.55H132.819V179.473H133.032C133.499 177.352 134.368 175.718 135.639 174.571C136.983 173.403 138.718 172.793 140.492 172.863C140.987 172.861 141.481 172.897 141.97 172.97C142.42 173.036 142.863 173.143 143.295 173.29V182.599C142.794 182.378 142.268 182.223 141.728 182.137C141.109 182.035 140.482 181.985 139.855 181.988C138.524 181.944 137.202 182.227 136.004 182.812C134.973 183.346 134.139 184.2 133.626 185.246C133.054 186.487 132.778 187.845 132.819 189.213V206.908H122.013V173.55Z" fill="#F7BF0B"/>
<path d="M152.697 205.579C150.169 204.241 148.108 202.169 146.786 199.637C145.402 197.043 144.711 193.919 144.713 190.265V190.201C144.713 186.61 145.427 183.511 146.855 180.906C148.198 178.364 150.273 176.281 152.813 174.925C155.383 173.547 158.392 172.857 161.842 172.857C165.291 172.857 168.311 173.547 170.901 174.925C173.432 176.275 175.505 178.343 176.858 180.867C178.286 183.453 179 186.561 179 190.192V190.256C179 193.93 178.303 197.063 176.91 199.654C175.585 202.18 173.525 204.246 170.999 205.579C168.452 206.938 165.407 207.617 161.863 207.617C158.32 207.617 155.264 206.938 152.697 205.579ZM165.075 198.317C166.051 197.5 166.77 196.421 167.149 195.207C167.664 193.606 167.907 191.929 167.868 190.248V190.184C167.908 188.514 167.655 186.85 167.119 185.267C166.716 184.058 165.987 182.983 165.011 182.161C164.096 181.466 162.977 181.089 161.827 181.089C160.676 181.089 159.557 181.466 158.642 182.161C157.658 182.979 156.924 184.055 156.522 185.267C155.984 186.849 155.729 188.514 155.768 190.184V190.248C155.728 191.931 155.977 193.608 156.505 195.207C156.894 196.423 157.624 197.502 158.608 198.317C159.537 199.027 160.681 199.399 161.85 199.372C163.013 199.405 164.151 199.038 165.075 198.334V198.317Z" fill="#F7BF0B"/>
</svg>
